<svg width="1040" height="1040" viewBox="0 0 1040 1040" fill="none" xmlns="http://www.w3.org/2000/svg">
<g clip-path="url(#clip0_661_2)">
<ellipse cx="517" cy="532.5" rx="410" ry="412.5" fill="white"/>
<path d="M908.816 485.819C886.344 280.844 717.805 126.446 516.422 126.446C315.903 126.446 147.364 280.844 124.892 484.932L109.334 483.157C133.535 271.083 308.124 110.474 516.422 110.474C725.583 110.474 901.037 271.083 923.509 484.045L908.816 485.819Z" fill="black"/>
<path d="M216.508 433.466L206.136 429.029C208.729 421.043 278.738 238.251 340.104 227.603C401.469 217.842 509.507 357.155 513.829 363.366L505.186 370.465C474.935 331.422 387.64 232.04 341.832 239.138C296.024 247.125 235.523 382 216.508 433.466Z" fill="black"/>
<path d="M731.633 401.522C731.633 401.522 721.262 382.001 707.433 361.592C684.097 326.985 671.996 318.999 667.675 318.112C652.982 313.675 610.631 349.169 586.43 376.677L578.652 368.691C579.516 367.803 595.073 350.944 613.224 334.972C640.017 311.901 659.032 303.027 671.132 307.464C697.061 315.45 737.684 388.212 742.005 396.198L731.633 401.522Z" fill="black"/>
<path d="M617.545 330.535C596.802 295.041 556.18 239.138 538.029 239.138C519.879 239.138 484.442 284.393 467.156 312.788L457.649 306.576C462.835 298.59 507.779 227.603 538.029 227.603C568.28 227.603 621.002 314.562 627.053 324.323L617.545 330.535Z" fill="black"/>
<path d="M575.194 397.973C581.244 445.002 522.472 443.227 522.472 471.622C522.472 508.003 608.038 507.116 608.038 559.469C608.038 631.343 493.085 642.879 493.085 698.781C493.085 781.304 757.563 803.488 817.2 807.037C881.158 734.275 919.187 637.555 919.187 531.961C919.187 515.989 918.323 500.904 916.595 485.82L915.73 476.059C915.73 476.059 812.878 377.564 556.18 367.803C563.094 375.789 574.33 388.212 575.194 397.973Z" fill="black"/>
<path d="M819.792 815.023H816.335C785.22 813.248 703.976 806.15 630.51 790.178C533.708 767.994 484.442 736.937 484.442 697.894C484.442 667.725 512.964 649.09 540.622 631.344C570.009 612.709 600.259 592.301 600.259 558.582C600.259 534.623 578.652 523.975 556.18 512.44C536.301 502.679 514.693 492.031 514.693 470.735C514.693 454.763 528.522 445.889 540.622 437.903C558.773 426.368 570.009 418.382 567.416 397.973C567.416 396.198 564.823 388.212 550.13 372.24L536.301 358.042L556.18 358.93C812.878 367.803 916.595 465.411 920.916 468.96L922.645 470.735L924.373 483.158C926.102 499.13 926.966 515.102 926.966 530.187C926.966 634.006 889.801 733.388 822.385 810.586L819.792 815.023ZM573.466 376.677C579.516 384.663 582.109 390.874 582.973 397.085C587.295 429.03 564.823 443.227 549.265 452.988C538.029 460.087 530.251 464.523 530.251 471.622C530.251 482.27 542.351 489.369 562.23 499.13C585.566 510.665 614.952 525.75 614.952 559.469C614.952 602.061 579.516 625.132 548.401 645.541C522.472 662.4 500 677.485 500 698.781C500 728.951 545.808 755.571 633.103 775.093C703.111 790.178 779.17 797.276 812.878 799.051C875.972 725.402 910.544 630.456 910.544 531.961C910.544 516.877 909.68 501.792 907.952 486.707L907.087 480.496C892.394 466.298 792.135 388.212 573.466 376.677Z" fill="black"/>
<path d="M342.697 715.641C359.983 588.751 502.593 618.033 502.593 571.004C502.593 515.102 427.398 515.102 427.398 478.721C427.398 442.34 523.336 421.044 523.336 399.748C523.336 386.438 513.829 374.902 506.914 366.916C246.759 369.578 117.977 484.045 117.977 484.045C116.249 500.017 115.385 515.989 115.385 531.961C115.385 757.346 291.703 941.026 509.507 944.575C441.227 923.279 323.682 855.841 342.697 715.641Z" fill="black"/>
<path d="M565.687 953.448L508.643 952.561C400.605 950.786 299.481 905.532 224.287 826.559C148.228 747.585 106.741 642.879 106.741 531.074C106.741 515.102 107.606 498.242 109.334 482.27V478.721L111.927 476.946C113.656 476.059 145.635 447.664 211.322 418.382C270.959 391.761 371.219 359.817 506.05 358.042H509.507L512.1 360.704C520.743 369.578 531.115 383.775 531.115 398.86C531.115 413.058 512.964 422.818 487.9 435.241C465.428 446.777 435.177 462.749 435.177 477.833C435.177 488.482 445.549 495.58 462.835 506.228C484.442 518.651 510.372 534.623 510.372 570.117C510.372 594.075 486.171 602.061 457.649 610.935C414.434 625.132 360.847 641.992 350.475 715.641C342.697 775.093 359.118 825.671 398.876 868.264C439.499 909.969 490.493 929.49 511.236 935.701L565.687 953.448ZM124.028 487.594C122.299 501.792 121.435 516.876 121.435 531.074C121.435 637.555 161.193 738.712 234.658 815.023C295.16 878.912 372.947 918.842 457.649 932.152C435.177 920.617 410.112 903.757 387.64 880.686C343.561 834.545 326.275 778.642 334.918 714.754C346.154 631.344 410.112 610.935 452.463 596.737C478.392 588.751 494.814 582.54 494.814 571.004C494.814 544.384 475.799 532.849 455.056 521.313C437.77 510.665 419.62 500.017 419.62 479.608C419.62 453.875 452.463 437.016 480.985 422.818C493.085 416.607 513.829 405.959 515.557 400.635C515.557 393.536 511.236 384.663 503.457 375.789C269.231 378.451 142.178 473.397 124.028 487.594Z" fill="black"/>
</g>
<defs>
<clipPath id="clip0_661_2">
<rect width="1040" height="1040" fill="white"/>
</clipPath>
</defs>
</svg>
