<?xml version="1.0" encoding="UTF-8"?>
<svg id="Layer_1" data-name="Layer 1" xmlns="http://www.w3.org/2000/svg" version="1.1" viewBox="0 0 1200 308.9">
  <defs>
    <style>
      .cls-1 {
        fill: #2d2a26;
      }

      .cls-1, .cls-2 {
        stroke-width: 0px;
      }

      .cls-2 {
        fill: #ff5100;
      }
    </style>
  </defs>
  <path class="cls-1" d="M1188.2,69.7c-6.5,0-11.8,5.3-11.8,11.8s5.3,11.8,11.8,11.8,11.8-5.3,11.8-11.8-5.3-11.8-11.8-11.8ZM1188.2,91.7c-5.6,0-10.1-4.5-10.1-10.1s4.5-10.1,10.1-10.1,10.1,4.5,10.1,10.1-4.5,10.1-10.1,10.1ZM1190.2,82.7c-.2-.2-.6-.4-1-.6,1.2-.2,2.2-.6,2.8-1.2.6-.6.9-1.4.9-2.3s-.2-1.4-.5-2c-.4-.6-.8-1-1.4-1.2s-1.5-.3-2.6-.3h-5.7v13h1.7v-5.8h2c.4,0,.8,0,1,0,.3,0,.5.2.8.3.3.2.5.5.9.9.3.4.7,1,1.2,1.8l1.7,2.7h2.2l-2.3-3.5c-.4-.7-.9-1.3-1.4-1.7ZM1187.8,80.8h-3.7v-4.3h4.1c1,0,1.7.2,2.1.6.4.4.7.9.7,1.5s-.1.8-.3,1.2c-.2.4-.6.6-1,.8-.4.2-1.1.2-1.8.2ZM379.8,172.8h-30.7l31.1-125.2h30.7l28.5,78.1,19.4-78.1h30.7l-31.1,125.2h-30.7l-28.5-78.1-19.4,78.1ZM524.7,174.7c28.6,0,55.8-18.1,63-47.1,7-28.4-11.6-47.3-39.6-47.3s-56.2,18.9-63.3,47.3c-7.2,29,11,47.1,39.8,47.1ZM515.3,127.8c2.8-11.3,10.7-23.4,26.9-23.4s17.8,12.1,15,23.4c-2.9,11.5-10.4,23.6-26.7,23.6s-18.1-12.1-15.2-23.6ZM622.5,172.8h-30.7l22.5-90.7h30.7l-2.8,11.1c8.1-7.8,19-13.2,30.9-13.2,24.1,0,29.8,16.7,23.7,41.3l-12.8,51.4h-30.7l12.8-51.4c2.7-10.7,0-16.5-9.6-16.5s-19.7,10.3-22.8,22.6l-11.2,45.2ZM865.9,109.7h-30.1c1-8.2-6-10.5-11.9-10.5s-13,3.1-14.4,8.4c-3.2,12.7,58.3-.2,48.8,38-5.3,21.4-25.4,29.2-51.6,29.2s-44.5-10.1-39.8-35.8h30.5c-3.4,13.6,8.5,14.4,15.2,14.4s13.5-2.7,14.8-7.6c4.7-19.1-57.3-4.1-49.1-37,4.6-18.5,21.3-28.8,51.1-28.8s38.9,8.8,36.4,29.6ZM943.5,82.1l-5.9,23.9h-16.4l-16.6,66.8h-30.5l16.6-66.8h-16.4l5.9-23.9h16.4l5.6-22.7,33.4-11.9-8.6,34.5h16.4ZM1002.6,80.3c-28.2,0-56.2,18.9-63.3,47.3-7.2,29,11,47.1,39.8,47.1s55.8-18.1,63-47.1c7-28.4-11.6-47.3-39.6-47.3ZM1011.7,127.8c-2.9,11.5-10.4,23.6-26.7,23.6s-18.1-12.1-15.2-23.6c2.8-11.3,10.7-23.4,26.9-23.4s17.8,12.1,15,23.4ZM1130.9,80.1c-11.7,0-23.7,3.3-34.1,13.2l2.8-11.1h-30.7l-30.6,123.2h30.7l10.8-43.4c3.8,9.3,16,13,27.7,13,25.6,0,50.3-22.2,56.5-47.3,6.2-25.1-7.4-47.5-33-47.5ZM1131.2,127.6c-3,11.9-14.8,22.6-27.1,22.6s-18.8-10.7-15.9-22.6c3-11.9,14.8-22.6,27.1-22.6s18.8,10.7,15.9,22.6ZM391.9,186.5l-6.6,26.8c-3.4-6-9.8-8-16.8-8-15.6,0-30.7,13.7-34.5,29-3.8,15.3,4.6,28.8,20.1,28.8s15.6-2.3,20.8-7.9l-1.6,6.6h18.7l18.7-75.3h-18.7ZM380,234.2c-1.8,7.3-9,13.8-16.5,13.8s-11.5-6.5-9.7-13.8c1.8-7.3,9-13.8,16.5-13.8s11.5,6.5,9.7,13.8ZM446.6,205.4c-17.2,0-34.3,11.5-38.6,28.8-4.4,17.7,6.7,28.7,24.3,28.7s34-11,38.4-28.7c4.3-17.3-7.1-28.8-24.1-28.8ZM452.2,234.4c-1.7,7-6.3,14.4-16.3,14.4s-11-7.4-9.3-14.4c1.7-6.9,6.5-14.3,16.4-14.3s10.9,7.4,9.2,14.3ZM528.3,213.3c-3.8-6.3-9.8-8-16.8-8-15.6,0-30.7,13.5-34.4,28.8-3.8,15.3,4.5,29,20.1,29s15.6-2.3,20.8-8l-2.2,8.8c-2,7.9-9.7,15.4-17.9,15.4s-10.1-3.9-9.9-10.4h-18.7c-3.3,16.8,11.2,24.3,26.1,24.3s35.1-13.3,39.6-31.5l13.7-55.2h-18.7l-1.7,6.8ZM523.2,234.1c-1.8,7.4-9.1,13.9-16.5,13.9s-11.5-6.5-9.6-13.9c1.8-7.3,9-13.8,16.5-13.8s11.5,6.5,9.7,13.8ZM653.8,206.5l-33,55.3h-21.3l-2.2-34.5-19.1,34.5h-21.4l-5.2-55.3h20.4l2.3,36.1,21-36.1h14.5l3.3,36.1,20.3-36.1h20.6ZM685.8,205.3c-18.4,0-34.9,11.7-39.2,29-4.4,17.5,5.9,28.8,24.9,28.8s28.1-7.3,35-21.8h-19.1c-1.1,4-6.3,8.4-12.9,8.4s-10.2-6.8-8.6-13.2h42.6c.3-1.1.7-2.4,1-3.5,4.4-17.7-7-27.7-23.7-27.7ZM692.8,227.6h-24.6s3.2-10.3,14.9-10.3,9.7,10.3,9.7,10.3ZM768.3,206.7l-1.6,6.6c-3.4-6-9.8-8-16.8-8-15.6,0-30.7,13.7-34.5,29-3.8,15.3,4.6,28.8,20.1,28.8s15.6-2.3,20.8-7.9l-1.6,6.6h18.7l13.7-55.2h-18.7ZM761.5,234.2c-1.8,7.3-9,13.8-16.5,13.8s-11.5-6.5-9.7-13.8c1.8-7.3,9-13.8,16.5-13.8s11.5,6.5,9.7,13.8ZM833,205.3c1.6,0,4,.5,5.3,1.3l-4.2,17h-.2c-1.3-2.3-3.8-3.1-6.7-3.1-7,0-14.1,7.1-15.8,13.8l-6.8,27.6h-18.7l13.7-55.3h18.7l-1.7,6.8c3.9-4.1,9.6-8,16.4-8ZM752.5,142.6h-47.3l5.9-23.9h47.3l-5.9,23.9Z"/>
  <path class="cls-2" d="M111.1,165.6c13.2,16.5,24.9,34.2,34.8,52.7l-58.8,84.8c-2.3,3.3-6.7,5.9-10,5.9,0,0-71.3,0-71.3,0-3.2,0-5.9-2.6-5.9-5.9V73.4c25.5,13.6,49.5,30.6,71.3,50.1v99.5l39.8-57.5ZM303,0h0s-71.3,0-71.3,0q-2.4,0,0,0h0c3.3,0,5.9,2.6,5.9,5.9v217.2s-47.5-68.6-47.5-68.6l43.8-63.1c-.9-4.7-1.9-9.4-3.1-14.1-4.7-19.1-11.6-37.6-20-55.4l-56.3,81.2L87.1,5.9c-2.3-3.3-6.7-5.9-10-5.9H5.9c3.3,0,7.7,2.6,10,5.9l205.9,297.1c2.3,3.3,6.7,5.9,10,5.9h71.3c3.3,0,5.9-2.6,5.9-5.9V5.9c0-3.3-2.6-5.9-5.9-5.9Z"/>
</svg>