<svg width="234" height="136" viewBox="0 0 234 136" fill="none" xmlns="http://www.w3.org/2000/svg">
<path d="M146.21 130.02H151.61V127.95H146.21V124.94H151.97V122.87H143.49V135.54H152.16V133.44H146.2V130.02H146.21ZM131.38 122.9H127.47V135.53H130.22V130.61H132.06C132.73 130.61 134 130.61 134.93 130.01C135.93 129.36 136.54 128.12 136.54 126.65C136.54 126 136.44 125.09 135.77 124.29C134.72 123.03 133.2 122.9 131.38 122.9ZM131.24 128.6H130.15V124.96H131.52C132.29 124.96 133.74 124.96 133.74 126.68C133.74 128.6 132.11 128.6 131.24 128.6ZM134.22 105.77C134.22 107.05 134.08 107.54 133.82 107.92C133.12 109.01 131.81 109.02 131.37 109.02C128.72 109.02 128.62 107.29 128.62 105.9V98.19H125.9V105.76C125.9 106.93 125.94 107.91 126.55 108.88C127.74 110.79 130.05 111.07 131.31 111.07C133.87 111.07 136.86 109.86 136.86 106.1V98.2H134.21V105.77H134.22ZM49.3802 103.23H44.6002V98.17H41.8902V110.84H44.6002V105.29H49.4202V110.84H52.1402V98.17H49.3902V103.23H49.3802ZM62.5302 105.32H67.9302V103.25H62.5302V100.24H68.2902V98.17H59.8102V110.84H68.4802V108.74H62.5202V105.32H62.5302ZM112.75 97.91C108.2 97.91 106.67 101.33 106.67 104.69C106.67 105.85 106.84 107.95 108.23 109.42C109.39 110.63 111.05 111.15 112.71 111.15C113.76 111.15 115.81 110.92 117.21 109.35C118.24 108.19 118.8 106.23 118.8 104.39C118.8 103.15 118.54 101.17 117.19 99.63C115.95 98.22 114.1 97.91 112.75 97.91ZM115.11 107.98C114.6 108.77 113.85 109.15 112.74 109.15C111.48 109.15 110.83 108.66 110.45 108.13C109.7 107.15 109.5 105.8 109.5 104.59C109.5 103.15 109.71 101.79 110.43 100.91C110.94 100.26 111.74 99.84 112.76 99.84C114.06 99.84 115.12 100.52 115.65 102.08C115.91 102.85 115.96 103.73 115.96 104.34C115.97 106.37 115.53 107.35 115.11 107.98ZM153.36 108.14L148.61 98.17H144.69V110.84H147.25V100.33L152.15 110.84H155.88V98.17H153.36V108.14ZM92.5802 107.39L89.9002 98.18H85.4702V110.85H88.0002V99.99L91.3802 110.85H93.6202L97.0702 99.99V110.85H99.7702V98.18H95.4602L92.5802 107.39ZM164.7 122.61C160.15 122.61 158.62 126.03 158.62 129.39C158.62 130.55 158.8 132.65 160.18 134.12C161.34 135.33 163 135.85 164.66 135.85C165.71 135.85 167.76 135.62 169.16 134.05C170.19 132.89 170.75 130.93 170.75 129.09C170.75 127.85 170.49 125.87 169.14 124.33C167.91 122.92 166.05 122.61 164.7 122.61ZM167.07 132.68C166.56 133.47 165.81 133.85 164.71 133.85C163.45 133.85 162.8 133.36 162.42 132.83C161.67 131.85 161.47 130.5 161.47 129.29C161.47 127.85 161.68 126.49 162.4 125.61C162.91 124.96 163.71 124.54 164.73 124.54C166.03 124.54 167.09 125.22 167.62 126.78C167.88 127.55 167.93 128.43 167.93 129.04C167.92 131.07 167.49 132.05 167.07 132.68ZM196.52 122.89H193.75V135.54H201.95V133.39H196.52V122.89ZM181.69 98.17L177.12 110.84H179.71L180.66 108.11H185.67L186.58 110.84H189.31L184.91 98.17H181.69ZM181.35 106.05L183.22 100.65L184.97 106.05H181.35ZM198.6 98.14H195.88V110.84H198.6V98.14ZM217.41 110.84V98.17H214.89V108.14L210.14 98.17H206.22V110.84H208.78V100.33L213.68 110.84H217.41ZM162.28 100.27H166.05V110.83H168.78V100.27H172.55V98.17H162.28V100.27ZM211.63 130.02H217.03V127.95H211.63V124.94H217.39V122.87H208.91V135.54H217.58V133.44H211.62V130.02H211.63ZM25.0902 100.27H28.8602V110.83H31.5902V100.27H35.3602V98.17H25.0902V100.27ZM181.72 122.9H177.81V135.53H180.56V130.61H182.4C183.07 130.61 184.34 130.61 185.27 130.01C186.27 129.36 186.88 128.12 186.88 126.65C186.88 126 186.78 125.09 186.11 124.29C185.07 123.03 183.54 122.9 181.72 122.9ZM181.58 128.6H180.49V124.96H181.86C182.63 124.96 184.08 124.96 184.08 126.68C184.09 128.6 182.46 128.6 181.58 128.6ZM25.4002 14.2C27.4002 12.25 29.1902 11.41 30.4502 11.54C32.1602 11.72 32.4402 12.55 32.9602 14.55C33.1302 15.22 33.3302 15.97 33.6302 16.79C40.0702 34.71 58.7502 30.38 58.9302 30.34C58.9702 30.33 59.8702 30.1 60.9802 29.64C61.2302 29.54 61.3802 29.3 61.3602 29.06C61.3402 28.82 61.1402 28.64 60.8902 28.62C57.4002 28.4 52.9202 26.79 46.1502 16.46L45.6402 15.68C42.9902 11.6 40.9102 8.37999 34.0102 8.85999C31.0402 9.06999 28.8102 10.12 26.8402 11.04C25.6202 11.61 24.4702 12.16 23.2402 12.47C20.0102 13.29 18.0502 13.17 16.3102 13.06C15.9602 13.04 15.6202 13.02 15.2802 13C8.30021 12.72 4.43022 9.34001 2.76022 2.04001C2.70022 1.81001 2.5002 1.66 2.2402 1.66C1.9902 1.67 1.78023 1.84 1.67023 2.06C1.36023 2.73 0.660214 4.62001 0.470214 6.54001C-0.369786 14.79 2.71022 19.99 8.73022 20.79C11.3402 21.16 18.2102 21.21 25.4002 14.2ZM95.5502 65.28C91.8602 64.96 89.4602 64.32 88.3602 63.35C87.2602 62.38 86.7102 60.08 86.7102 56.45V37.2L92.1502 36.96L115.45 67.04H131.21V65.28C129.26 65.09 127.67 64.65 126.44 63.94C125.2 63.24 123.96 62.13 122.71 60.6L102.56 35.82C108 34.99 112.31 33.27 115.47 30.66C118.64 28.05 120.22 24.31 120.22 19.44C120.22 12.18 116.66 7.19999 109.53 4.48999C105.77 3.05999 101.08 2.34 95.4502 2.34H68.3802V4.16C71.9202 4.45 74.2002 5.12 75.2302 6.19C76.2602 7.26 76.7802 9.51001 76.7802 12.95V55.31C76.7802 59.38 76.3202 61.98 75.4002 63.09C74.4702 64.2 72.1402 64.94 68.3802 65.28V67.04H95.5502V65.28ZM86.7202 9.45999C86.7202 7.99999 87.0302 7.07001 87.6502 6.67001C88.2702 6.27001 89.9702 6.07001 92.7402 6.07001C96.8502 6.07001 100.14 6.62999 102.62 7.73999C107.27 9.80999 109.59 13.68 109.59 19.34C109.59 25.23 106.99 29.24 101.8 31.38C98.7802 32.59 93.7502 33.32 86.7102 33.57V9.45999H86.7202ZM231.85 2.03C230.73 0.929999 229.39 0.380005 227.81 0.380005C226.21 0.380005 224.86 0.949987 223.75 2.07999C222.65 3.20999 222.09 4.57999 222.09 6.17999C222.09 7.75999 222.65 9.09999 223.76 10.21C224.88 11.32 226.23 11.88 227.81 11.88C229.39 11.88 230.73 11.33 231.85 10.24C232.97 9.13999 233.53 7.77001 233.53 6.14001C233.53 4.50001 232.97 3.13 231.85 2.03ZM231.15 9.70999C230.18 10.69 229.06 11.17 227.81 11.17C226.46 11.17 225.31 10.66 224.39 9.64001C223.46 8.62001 223 7.45 223 6.12C223 4.74 223.47 3.56001 224.41 2.57001C225.35 1.57001 226.5 1.07001 227.86 1.07001C229.16 1.07001 230.28 1.58 231.22 2.59C232.16 3.6 232.63 4.78 232.63 6.12C232.62 7.54 232.13 8.72999 231.15 9.70999ZM204.65 22.11C200.83 22.11 197.46 23.31 194.53 25.69C192.87 27.06 191.63 28.51 190.81 30.03V0.950012C190.81 0.760012 190.78 0.570005 190.71 0.380005C190.49 0.380005 188.93 0.890004 186.03 1.91C183.14 2.93 179.87 3.84999 176.24 4.67999V6.29999L178.39 6.06C180.23 6.06 181.41 6.45001 181.92 7.23001C182.43 8.01001 182.68 9.33001 182.68 11.17V61.65C182.68 63.05 184.38 64.45 187.79 65.85C191.2 67.25 194.67 67.95 198.2 67.95C205.2 67.95 210.86 65.55 215.15 60.74C219.45 55.93 221.59 50.15 221.59 43.4C221.59 37.1 219.94 31.97 216.63 28.02C213.33 24.09 209.33 22.11 204.65 22.11ZM210.02 59.7C207.88 63.04 204.57 64.71 200.12 64.71C198.46 64.71 196.54 64.35 194.34 63.64C192.15 62.92 190.91 61.74 190.62 60.08V35.73C190.62 33.6 191.7 31.84 193.87 30.45C196.04 29.07 198.25 28.37 200.51 28.37C205 28.37 208.24 30.39 210.25 34.41C212.25 38.44 213.26 42.82 213.26 47.57C213.24 52.31 212.17 56.35 210.02 59.7ZM228.72 6.29999C229.59 6.00999 230.03 5.42999 230.03 4.54999C230.03 4.04999 229.84 3.66999 229.46 3.39999C229.09 3.13999 228.61 3 228.02 3H225.05V3.25C225.41 3.28 225.64 3.33001 225.72 3.42001C225.81 3.51001 225.86 3.71999 225.86 4.04999V8.13C225.86 8.46 225.82 8.66 225.73 8.75C225.65 8.84 225.42 8.89 225.05 8.91V9.16H227.73V8.91C227.34 8.87 227.11 8.81001 227.03 8.73001C226.95 8.65001 226.92 8.45 226.92 8.13V6.45999H227.86C228.25 7.09999 228.66 7.75001 229.08 8.39001C229.4 8.90001 229.67 9.16 229.88 9.16H230.94V9.01999C230.44 8.53999 230.07 8.13999 229.83 7.79999L228.72 6.29999ZM227.65 6.14999H226.92V3.31H227.6C228.48 3.31 228.92 3.75 228.92 4.63C228.92 5.65 228.5 6.14999 227.65 6.14999ZM171.42 62.22C170.11 62.22 169.26 61.6 168.84 60.36C168.58 59.66 168.46 58.39 168.46 56.54V37.39C168.46 33.18 167.87 29.99 166.69 27.79C164.5 23.78 160.31 21.77 154.14 21.77C148.82 21.77 144.79 22.99 142.03 25.42C139.28 27.86 137.9 30.19 137.9 32.42C137.9 33.57 138.29 34.61 139.05 35.55C139.82 36.49 140.91 36.96 142.35 36.96C143.27 36.96 144.07 36.75 144.74 36.34C145.92 35.64 146.5 34.4 146.5 32.61C146.5 32.36 146.42 31.78 146.27 30.87C146.11 29.96 146.03 29.32 146.03 28.93C146.03 27.44 146.76 26.26 148.23 25.4C149.69 24.58 151.23 24.16 152.86 24.16C156.27 24.16 158.51 25.23 159.59 27.36C160.23 28.64 160.55 30.9 160.55 34.14V38.2C151.79 41.48 145.95 44.07 143.03 45.98C138.41 49.07 136.1 52.92 136.1 57.53C136.1 60.49 137.1 62.93 139.11 64.86C141.11 66.79 143.49 67.75 146.22 67.75C148.83 67.75 151.58 66.89 154.48 65.17C156.2 64.15 158.27 62.59 160.69 60.49C160.79 62.43 161.32 64.1 162.29 65.5C163.26 66.9 164.83 67.6 166.99 67.6C168.84 67.6 170.65 66.99 172.43 65.78C173.61 64.99 174.71 63.97 175.73 62.73V60.25C174.55 61.11 173.72 61.65 173.25 61.87C172.76 62.11 172.15 62.22 171.42 62.22ZM160.54 55.73C160.54 57.54 159.58 59.04 157.65 60.22C155.72 61.4 153.71 61.99 151.61 61.99C150.08 61.99 148.7 61.54 147.45 60.65C145.54 59.28 144.59 57.15 144.59 54.25C144.59 50.65 146.88 47.44 151.46 44.6C153.85 43.14 156.87 41.8 160.53 40.59V55.73H160.54ZM65.4402 55.21C65.4802 55.2 66.3802 54.97 67.4902 54.51C67.7402 54.41 67.8902 54.17 67.8702 53.93C67.8502 53.69 67.6502 53.5 67.3902 53.49C63.9002 53.27 59.4202 51.67 52.6402 41.33L52.1302 40.55C49.4802 36.47 47.3902 33.25 40.5002 33.73C37.5302 33.94 35.3002 34.98 33.3302 35.91C32.1102 36.49 30.9602 37.02 29.7302 37.34C26.5002 38.16 24.5402 38.04 22.8002 37.93C22.4502 37.91 22.1102 37.88 21.7702 37.87C14.7802 37.6 10.9302 34.21 9.25021 26.91C9.20021 26.68 8.99022 26.52 8.73022 26.53C8.48022 26.54 8.27022 26.71 8.16022 26.93C7.85022 27.6 7.1502 29.49 6.9602 31.42C6.1202 39.67 9.2002 44.87 15.2102 45.67C17.8302 46.02 24.7002 46.06 31.8902 39.06C33.9002 37.11 35.6802 36.27 36.9402 36.4C38.6502 36.58 38.9302 37.41 39.4502 39.41C39.6202 40.07 39.8202 40.82 40.1202 41.65C46.5802 59.58 65.2502 55.26 65.4402 55.21Z" fill="black"/>
</svg>
